<?xml version="1.0" encoding="UTF-8"?><svg id="Layer_1" xmlns="http://www.w3.org/2000/svg" viewBox="0 0 500 226.1"><defs><style>.cls-1{fill:#fff;}</style></defs><path class="cls-1" d="m206.82,37.8h2.07c.94,0,1.27.33,1.27,1.22v30.97c0,.9-.33,1.22-1.27,1.22h-2.07c-.89,0-1.22-.33-1.22-1.22v-30.97c0-.9.33-1.22,1.22-1.22Z"/><path class="cls-1" d="m227.15,46.22c6.59,0,9.56,3.48,9.56,9.32v14.55c0,.85-.28,1.13-1.13,1.13h-1.98c-.85,0-1.13-.28-1.13-1.13v-14.4c0-3.72-1.84-5.6-5.89-5.6-2.31,0-4.14.43-5.46.85-.47.19-.56.47-.56.85v18.31c0,.85-.28,1.13-1.13,1.13h-1.98c-.8,0-1.08-.28-1.08-1.13v-19.63c0-1.46.33-2.03,1.79-2.64,1.84-.75,4.61-1.6,8.99-1.6Z"/><path class="cls-1" d="m248.75,42.41v4.52h6.17c.8,0,1.08.28,1.08,1.13v1.65c0,.85-.28,1.13-1.08,1.13h-6.17v10.97c0,5.13,1.51,6.12,6.07,6.12.9,0,1.18.23,1.18,1.13v1.69c0,.85-.28,1.08-1.18,1.13-7.49.19-10.26-2.12-10.26-9.98v-11.06h-3.91c-.85,0-1.13-.28-1.13-1.13v-1.65c0-.85.28-1.13,1.13-1.13h3.91v-4.52c0-.85.24-1.13,1.08-1.13h1.98c.85,0,1.13.28,1.13,1.13Z"/><path class="cls-1" d="m269.41,46.22c7.25,0,10.64,4.19,10.64,9.74v2.73c0,.99-.42,1.65-1.74,1.65h-15.34v2.26c0,3.58,2.16,5.65,6.31,5.65,3.34,0,5.37-1.27,6.54-3.25.56-.8.99-.9,1.84-.43l1.27.66c.85.42.94,1.03.42,1.84-1.65,2.87-4.71,4.85-10.12,4.85-7.34,0-10.45-4.05-10.45-9.79v-5.84c0-6.35,3.67-10.07,10.64-10.07Zm0,3.58c-4.24,0-6.45,2.26-6.45,5.93v1.37h12.9v-1.37c0-3.67-2.16-5.93-6.45-5.93Z"/><path class="cls-1" d="m296.61,46.22c.85,0,1.13.28,1.13,1.13v1.6c0,.85-.28,1.13-1.13,1.13h-1.65c-2.31,0-4.05.38-5.41.8-.61.24-.66.52-.66.94v18.27c0,.85-.28,1.13-1.13,1.13h-1.98c-.8,0-1.08-.28-1.08-1.13v-19.77c0-1.46.33-2.03,1.79-2.64,1.74-.66,4.47-1.36,8.62-1.46h1.51Z"/><path class="cls-1" d="m324.85,46.22c6.17,0,8.9,3.29,8.9,9.13v14.73c0,.85-.28,1.13-1.08,1.13h-1.98c-.85,0-1.13-.28-1.13-1.13v-14.59c0-3.62-1.69-5.41-5.27-5.41-2.59,0-4.57.85-5.56,1.27.52,1.08.71,2.45.71,4v14.73c0,.85-.28,1.13-1.08,1.13h-1.98c-.85,0-1.13-.28-1.13-1.13v-14.59c0-3.62-1.79-5.41-5.37-5.41-1.79,0-3.11.28-4.43.75-.52.28-.56.56-.56.99v18.27c0,.85-.28,1.13-1.13,1.13h-1.98c-.8,0-1.08-.28-1.08-1.13v-19.63c0-1.46.33-2.07,1.79-2.68,1.74-.75,4.19-1.55,7.96-1.55,2.64,0,4.61.61,6.03,1.79,1.27-.52,4.09-1.79,8.38-1.79Z"/><path class="cls-1" d="m349.22,46.22c7.25,0,10.64,4.19,10.64,9.74v2.73c0,.99-.42,1.65-1.74,1.65h-15.34v2.26c0,3.58,2.16,5.65,6.31,5.65,3.34,0,5.37-1.27,6.54-3.25.56-.8.99-.9,1.84-.43l1.27.66c.85.42.94,1.03.42,1.84-1.65,2.87-4.71,4.85-10.12,4.85-7.34,0-10.45-4.05-10.45-9.79v-5.84c0-6.35,3.67-10.07,10.64-10.07Zm0,3.58c-4.24,0-6.45,2.26-6.45,5.93v1.37h12.9v-1.37c0-3.67-2.16-5.93-6.45-5.93Z"/><path class="cls-1" d="m373.36,46.22c2.92,0,5.37.71,6.59,1.03v-9.74c0-.85.28-1.13,1.13-1.13h1.98c.8,0,1.08.28,1.08,1.13v30.36c0,1.55-.33,1.98-1.84,2.59-1.84.71-4.43,1.46-8.43,1.46-6.92,0-10.08-3.44-10.08-9.46v-6.64c0-6.12,3.15-9.6,9.56-9.6Zm.8,3.86c-4.24,0-6.12,2.03-6.12,5.89v6.35c0,3.77,2.07,5.74,6.21,5.74,2.07,0,3.81-.33,5.04-.75.61-.24.66-.38.66-.9v-15.3c-1.08-.33-3.15-1.04-5.79-1.04Z"/><path class="cls-1" d="m394.44,40.29v.38c0,1.69-.52,2.26-2.26,2.26h-.28c-1.69,0-2.26-.52-2.26-2.26v-.38c0-1.7.56-2.26,2.26-2.26h.28c1.74,0,2.26.56,2.26,2.26Zm-.28,7.77v22.03c0,.85-.28,1.13-1.13,1.13h-1.98c-.85,0-1.13-.28-1.13-1.13v-22.03c0-.85.28-1.13,1.13-1.13h1.98c.85,0,1.13.28,1.13,1.13Z"/><path class="cls-1" d="m409.08,46.22c7.63,0,9.74,4.19,9.74,9.51v12.29c0,1.65-.38,2.12-1.69,2.68-1.74.75-4.43,1.22-8.1,1.22-8.28,0-10.31-2.68-10.31-7.49,0-5.51,3.01-7.39,10.5-7.39,2.31,0,4.57.23,5.37.33v-1.79c0-3.34-1.18-5.6-5.6-5.6-2.82,0-4.71.99-5.84,2.87-.52.75-.71.89-1.55.56l-1.46-.66c-.8-.33-1.03-.75-.61-1.6,1.6-3.11,4.75-4.94,9.56-4.94Zm-.33,14.26c-4.43,0-5.79,1.27-5.79,3.95,0,2.45.99,3.96,5.7,3.96,2.54,0,4.14-.19,5.22-.56.56-.24.71-.38.71-1.03v-5.93c-.94-.09-3.53-.38-5.84-.38Z"/><path class="cls-1" d="m430.67,42.41v4.52h6.17c.8,0,1.08.28,1.08,1.13v1.65c0,.85-.28,1.13-1.08,1.13h-6.17v10.97c0,5.13,1.51,6.12,6.07,6.12.9,0,1.18.23,1.18,1.13v1.69c0,.85-.28,1.08-1.18,1.13-7.49.19-10.26-2.12-10.26-9.98v-11.06h-3.91c-.85,0-1.13-.28-1.13-1.13v-1.65c0-.85.28-1.13,1.13-1.13h3.91v-4.52c0-.85.24-1.13,1.08-1.13h1.98c.85,0,1.13.28,1.13,1.13Z"/><path class="cls-1" d="m451.33,46.22c7.25,0,10.64,4.19,10.64,9.74v2.73c0,.99-.42,1.65-1.74,1.65h-15.34v2.26c0,3.58,2.16,5.65,6.31,5.65,3.34,0,5.37-1.27,6.54-3.25.56-.8.99-.9,1.84-.43l1.27.66c.85.42.94,1.03.42,1.84-1.65,2.87-4.71,4.85-10.12,4.85-7.34,0-10.45-4.05-10.45-9.79v-5.84c0-6.35,3.67-10.07,10.64-10.07Zm0,3.58c-4.24,0-6.45,2.26-6.45,5.93v1.37h12.9v-1.37c0-3.67-2.16-5.93-6.45-5.93Z"/><path class="cls-1" d="m230.97,106.72v6.03c0,6.59-4.66,11.2-13.18,11.2s-13.18-4.61-13.18-12.05v-10.73c0-7.44,4.66-12.05,13.18-12.05,7.06,0,10.97,2.82,12.66,8,.28.89.09,1.27-.8,1.6l-1.93.66c-.89.33-1.27.14-1.6-.75-1.18-3.53-3.62-5.27-8.33-5.27-5.65,0-8.62,2.82-8.62,7.77v10.78c0,4.94,3.06,7.81,8.62,7.81s8.66-2.87,8.66-6.97v-3.06h-8.14c-.94,0-1.22-.28-1.22-1.22v-1.79c0-.9.28-1.22,1.22-1.22h11.39c.94,0,1.27.33,1.27,1.27Z"/><path class="cls-1" d="m247.86,98.25c.85,0,1.13.28,1.13,1.13v1.6c0,.85-.28,1.13-1.13,1.13h-1.65c-2.31,0-4.05.38-5.41.8-.61.24-.66.52-.66.94v18.27c0,.85-.28,1.13-1.13,1.13h-1.98c-.8,0-1.08-.28-1.08-1.13v-19.77c0-1.46.33-2.03,1.79-2.64,1.74-.66,4.47-1.36,8.62-1.46h1.51Z"/><path class="cls-1" d="m260.8,98.25c7.63,0,9.74,4.19,9.74,9.51v12.29c0,1.65-.38,2.12-1.69,2.68-1.74.75-4.43,1.22-8.1,1.22-8.28,0-10.31-2.68-10.31-7.49,0-5.51,3.01-7.39,10.5-7.39,2.31,0,4.57.23,5.37.33v-1.79c0-3.34-1.18-5.6-5.6-5.6-2.82,0-4.71.99-5.84,2.87-.52.75-.71.89-1.55.56l-1.46-.66c-.8-.33-1.03-.75-.61-1.6,1.6-3.11,4.75-4.94,9.56-4.94Zm-.33,14.26c-4.43,0-5.79,1.27-5.79,3.95,0,2.45.99,3.96,5.7,3.96,2.54,0,4.14-.19,5.22-.56.56-.24.71-.38.71-1.03v-5.93c-.94-.09-3.53-.38-5.84-.38Z"/><path class="cls-1" d="m286.45,98.25c6.73,0,9.84,3.44,9.84,9.46v6.64c0,6.12-3.2,9.6-10.03,9.6-2.68,0-4.9-.85-6.12-1.27v9.79c0,.85-.28,1.13-1.13,1.13h-1.98c-.8,0-1.08-.28-1.08-1.13v-30.17c0-1.55.33-2.07,1.84-2.68,1.84-.7,4.57-1.36,8.66-1.36Zm-.61,3.86c-2.07,0-3.72.33-4.99.71-.61.28-.71.42-.71.99v15.06c1.08.38,3.3,1.22,5.79,1.22,4.24,0,6.12-1.98,6.12-5.88v-6.35c0-3.77-2.07-5.74-6.21-5.74Z"/><path class="cls-1" d="m305.59,89.54v9.74c.99-.47,3.53-1.03,6.59-1.03,6.59,0,9.56,3.44,9.56,9.32v14.55c0,.85-.28,1.13-1.13,1.13h-1.93c-.85,0-1.13-.28-1.13-1.13v-14.4c0-3.62-1.98-5.6-5.93-5.6-2.64,0-4.99.56-6.03,1.08v18.92c0,.85-.28,1.13-1.08,1.13h-1.98c-.85,0-1.13-.28-1.13-1.13v-32.57c0-.85.28-1.13,1.13-1.13h1.98c.8,0,1.08.28,1.08,1.13Z"/><path class="cls-1" d="m331.9,92.32v.38c0,1.69-.52,2.26-2.26,2.26h-.28c-1.69,0-2.26-.52-2.26-2.26v-.38c0-1.7.56-2.26,2.26-2.26h.28c1.74,0,2.26.56,2.26,2.26Zm-.28,7.77v22.03c0,.85-.28,1.13-1.13,1.13h-1.98c-.85,0-1.13-.28-1.13-1.13v-22.03c0-.85.28-1.13,1.13-1.13h1.98c.85,0,1.13.28,1.13,1.13Z"/><path class="cls-1" d="m347.19,98.25c5.7,0,8.75,2.59,9.93,6.31.33.9.05,1.32-.75,1.6l-1.65.52c-.85.38-1.27.09-1.6-.75-.85-2.59-2.63-3.95-6.12-3.95-4.09,0-6.12,2.07-6.12,5.55v7.11c0,3.48,2.07,5.6,6.12,5.6,3.39,0,5.32-1.46,6.17-4.09.38-.89.71-1.03,1.6-.75l1.65.47c.85.33,1.13.7.8,1.6-1.51,4.19-4.71,6.5-10.31,6.5-6.97,0-10.26-3.62-10.26-9.51v-6.73c0-5.84,3.39-9.46,10.55-9.46Z"/><path class="cls-1" d="m370.25,98.25c5.46,0,8.43,2.02,9.84,5.08.42.85.19,1.32-.56,1.65l-1.6.66c-.85.38-1.08.24-1.55-.52-.9-1.84-2.4-3.06-6.03-3.06s-5.37,1.13-5.37,3.39c0,3.01,2.5,3.39,6.4,3.72,5.37.52,9.32,1.69,9.32,7.25,0,4.47-3.25,7.53-9.84,7.53-5.37,0-8.85-1.93-10.31-5.79-.33-.75-.14-1.22.71-1.51l1.6-.56c.75-.23,1.13-.14,1.51.71.94,2.45,3.06,3.39,6.35,3.39,4,0,5.88-1.27,5.88-3.58,0-2.82-2.31-3.34-6.26-3.72-4.71-.47-9.56-1.27-9.56-7.34,0-4.38,3.2-7.3,9.46-7.3Z"/><path class="cls-1" d="m210.17,143.07v27.96h14.78c.94,0,1.27.33,1.27,1.22v1.79c0,.9-.33,1.22-1.27,1.22h-18.12c-.89,0-1.22-.33-1.22-1.22v-30.97c0-.9.33-1.22,1.22-1.22h2.07c.94,0,1.27.33,1.27,1.22Z"/><path class="cls-1" d="m234.26,144.34v.38c0,1.69-.52,2.26-2.26,2.26h-.28c-1.69,0-2.26-.52-2.26-2.26v-.38c0-1.7.56-2.26,2.26-2.26h.28c1.74,0,2.26.56,2.26,2.26Zm-.28,7.77v22.03c0,.85-.28,1.13-1.13,1.13h-1.98c-.85,0-1.13-.28-1.13-1.13v-22.03c0-.85.28-1.13,1.13-1.13h1.98c.85,0,1.13.28,1.13,1.13Z"/><path class="cls-1" d="m243.95,141.56v9.89c1.32-.43,3.72-1.18,6.64-1.18,6.54,0,9.51,3.48,9.51,9.32v6.59c0,6.31-3.34,9.79-10.35,9.79-3.67,0-6.54-.75-8.24-1.46-1.51-.7-1.74-1.08-1.74-2.59v-30.36c0-.85.28-1.13,1.08-1.13h1.98c.85,0,1.13.28,1.13,1.13Zm6.03,12.57c-2.63,0-4.9.8-6.03,1.22v15.11c0,.47.05.66.66.9,1.18.42,2.87.75,4.85.75,4.38,0,6.4-2.02,6.4-6.07v-6.31c0-3.58-1.93-5.6-5.89-5.6Z"/><path class="cls-1" d="m277.03,150.27c.85,0,1.13.28,1.13,1.13v1.6c0,.85-.28,1.13-1.13,1.13h-1.65c-2.31,0-4.05.38-5.41.8-.61.24-.66.52-.66.94v18.27c0,.85-.28,1.13-1.13,1.13h-1.98c-.8,0-1.08-.28-1.08-1.13v-19.77c0-1.46.33-2.03,1.79-2.64,1.74-.66,4.47-1.36,8.62-1.46h1.51Z"/><path class="cls-1" d="m289.97,150.27c7.63,0,9.74,4.19,9.74,9.51v12.29c0,1.65-.38,2.12-1.69,2.68-1.74.75-4.43,1.22-8.1,1.22-8.28,0-10.31-2.68-10.31-7.49,0-5.51,3.01-7.39,10.5-7.39,2.31,0,4.57.23,5.37.33v-1.79c0-3.34-1.18-5.6-5.6-5.6-2.82,0-4.71.99-5.84,2.87-.52.75-.71.89-1.55.56l-1.46-.66c-.8-.33-1.03-.75-.61-1.6,1.6-3.11,4.75-4.94,9.56-4.94Zm-.33,14.26c-4.43,0-5.79,1.27-5.79,3.95,0,2.45.99,3.96,5.7,3.96,2.54,0,4.14-.19,5.22-.56.56-.24.71-.38.71-1.03v-5.93c-.94-.09-3.53-.38-5.84-.38Z"/><path class="cls-1" d="m317.03,150.27c.85,0,1.13.28,1.13,1.13v1.6c0,.85-.28,1.13-1.13,1.13h-1.65c-2.31,0-4.05.38-5.41.8-.61.24-.66.52-.66.94v18.27c0,.85-.28,1.13-1.13,1.13h-1.98c-.8,0-1.08-.28-1.08-1.13v-19.77c0-1.46.33-2.03,1.79-2.64,1.74-.66,4.47-1.36,8.62-1.46h1.51Z"/><path class="cls-1" d="m341.6,152.11v24.34c0,6.12-2.87,10.17-10.17,10.17-5.04,0-7.91-1.88-9.56-4.8-.52-.8-.38-1.36.47-1.79l1.36-.75c.9-.47,1.27-.33,1.84.42,1.13,1.93,2.73,3.15,5.84,3.15,4.09,0,6.03-2.26,6.03-6.21v-2.54c-1.55.42-3.62.99-6.59.99-6.59,0-9.56-3.44-9.56-9.32v-13.65c0-.85.28-1.13,1.13-1.13h1.98c.8,0,1.08.28,1.08,1.13v13.51c0,3.72,1.88,5.6,5.93,5.6,2.63,0,4.66-.56,6.03-.99v-18.12c0-.85.28-1.13,1.13-1.13h1.93c.85,0,1.13.28,1.13,1.13Z"/><path class="cls-1" d="m161.09,148.55c-.76,0-1.52-.29-2.1-.87-1.16-1.16-1.16-3.03,0-4.19l12.49-12.49c1.16-1.16,3.03-1.16,4.19,0s1.16,3.03,0,4.19l-12.49,12.49c-.58.58-1.34.87-2.1.87Z"/><path class="cls-1" d="m40.71,83c-.76,0-1.52-.29-2.1-.87-1.16-1.16-1.16-3.03,0-4.19l12.49-12.49c1.16-1.16,3.03-1.16,4.19,0,1.16,1.16,1.16,3.03,0,4.19l-12.49,12.49c-.58.58-1.34.87-2.1.87Z"/><path class="cls-1" d="m173.59,136.06c-.76,0-1.52-.29-2.1-.87L80.62,44.32l-15.97,15.97c-1.16,1.16-3.03,1.16-4.19,0-1.16-1.16-1.16-3.03,0-4.19l18.07-18.07c1.16-1.16,3.03-1.16,4.19,0l92.97,92.97c1.16,1.16,1.16,3.03,0,4.19-.58.58-1.34.87-2.1.87Z"/><path class="cls-1" d="m133.67,175.97c-.76,0-1.52-.29-2.1-.87L38.61,82.14c-1.16-1.16-1.16-3.03,0-4.19,1.16-1.16,3.03-1.16,4.19,0l92.97,92.97c1.16,1.16,1.16,3.03,0,4.19-.58.58-1.34.87-2.1.87Z"/><path class="cls-1" d="m134.04,175.61c-.76,0-1.52-.29-2.1-.87-1.16-1.16-1.16-3.03,0-4.19l18.28-18.28L59.35,61.4c-1.16-1.16-1.16-3.03,0-4.19s3.03-1.16,4.19,0l92.97,92.97c1.16,1.16,1.16,3.03,0,4.19l-20.37,20.37c-.58.58-1.34.87-2.1.87Z"/><path class="cls-1" d="m81.4,175.19c-.76,0-1.52-.29-2.1-.87l-12.49-12.49c-1.16-1.16-1.16-3.03,0-4.19,1.16-1.16,3.03-1.16,4.19,0l12.49,12.49c1.16,1.16,1.16,3.03,0,4.19-.58.58-1.34.87-2.1.87Z"/><path class="cls-1" d="m146.94,54.8c-.76,0-1.52-.29-2.1-.87l-12.49-12.49c-1.16-1.16-1.16-3.03,0-4.19s3.03-1.16,4.19,0l12.49,12.49c1.16,1.16,1.16,3.03,0,4.19-.58.58-1.34.87-2.1.87Z"/><path class="cls-1" d="m81.4,175.19c-.76,0-1.52-.29-2.1-.87-1.16-1.16-1.16-3.03,0-4.19l90.87-90.87-15.97-15.97c-1.16-1.16-1.16-3.03,0-4.19,1.16-1.16,3.03-1.16,4.19,0l18.07,18.07c1.16,1.16,1.16,3.03,0,4.19l-92.97,92.97c-.58.58-1.34.87-2.1.87Z"/><path class="cls-1" d="m41.49,135.28c-.76,0-1.52-.29-2.1-.87-1.16-1.16-1.16-3.03,0-4.19l92.97-92.97c1.16-1.16,3.03-1.16,4.19,0,1.16,1.16,1.16,3.03,0,4.19l-92.97,92.97c-.58.58-1.34.87-2.1.87Z"/><path class="cls-1" d="m62.23,156.02c-.76,0-1.52-.29-2.1-.87l-20.37-20.37c-1.16-1.16-1.16-3.03,0-4.19s3.03-1.16,4.19,0l18.28,18.28,90.87-90.87c1.16-1.16,3.03-1.16,4.19,0,1.16,1.16,1.16,3.03,0,4.19l-92.97,92.97c-.58.58-1.34.87-2.1.87Z"/></svg>