<?xml version="1.0" encoding="UTF-8"?><svg id="Layer_1" xmlns="http://www.w3.org/2000/svg" viewBox="0 0 214.9 214.87"><defs><style>.cls-1{fill:#9dff4f;}</style></defs><path class="cls-1" d="m161.41,149.42c-.76,0-1.52-.29-2.1-.87-1.16-1.16-1.16-3.03,0-4.19l12.49-12.49c1.16-1.16,3.03-1.16,4.19,0,1.16,1.16,1.16,3.03,0,4.19l-12.49,12.49c-.58.58-1.34.87-2.1.87Z"/><path class="cls-1" d="m41.03,83.87c-.76,0-1.52-.29-2.1-.87-1.16-1.16-1.16-3.03,0-4.19l12.49-12.49c1.16-1.16,3.03-1.16,4.19,0,1.16,1.16,1.16,3.03,0,4.19l-12.49,12.49c-.58.58-1.34.87-2.1.87Z"/><path class="cls-1" d="m173.91,136.93c-.76,0-1.52-.29-2.1-.87L80.94,45.19l-15.97,15.97c-1.16,1.16-3.03,1.16-4.19,0-1.16-1.16-1.16-3.03,0-4.19l18.07-18.07c1.16-1.16,3.03-1.16,4.19,0l92.97,92.97c1.16,1.16,1.16,3.03,0,4.19-.58.58-1.34.87-2.1.87Z"/><path class="cls-1" d="m133.99,176.84c-.76,0-1.52-.29-2.1-.87L38.93,83c-1.16-1.16-1.16-3.03,0-4.19,1.16-1.16,3.03-1.16,4.19,0l92.97,92.97c1.16,1.16,1.16,3.03,0,4.19-.58.58-1.34.87-2.1.87Z"/><path class="cls-1" d="m134.36,176.47c-.76,0-1.52-.29-2.1-.87-1.16-1.16-1.16-3.03,0-4.19l18.28-18.28L59.67,62.26c-1.16-1.16-1.16-3.03,0-4.19,1.16-1.16,3.03-1.16,4.19,0l92.97,92.97c1.16,1.16,1.16,3.03,0,4.19l-20.37,20.37c-.58.58-1.34.87-2.1.87Z"/><path class="cls-1" d="m81.72,176.06c-.76,0-1.52-.29-2.1-.87l-12.49-12.49c-1.16-1.16-1.16-3.03,0-4.19,1.16-1.16,3.03-1.16,4.19,0l12.49,12.49c1.16,1.16,1.16,3.03,0,4.19-.58.58-1.34.87-2.1.87Z"/><path class="cls-1" d="m147.27,55.67c-.76,0-1.52-.29-2.1-.87l-12.49-12.49c-1.16-1.16-1.16-3.03,0-4.19,1.16-1.16,3.03-1.16,4.19,0l12.49,12.49c1.16,1.16,1.16,3.03,0,4.19-.58.58-1.34.87-2.1.87Z"/><path class="cls-1" d="m81.72,176.06c-.76,0-1.52-.29-2.1-.87-1.16-1.16-1.16-3.03,0-4.19l90.87-90.87-15.97-15.97c-1.16-1.16-1.16-3.03,0-4.19,1.16-1.16,3.03-1.16,4.19,0l18.07,18.07c1.16,1.16,1.16,3.03,0,4.19l-92.97,92.97c-.58.58-1.34.87-2.1.87Z"/><path class="cls-1" d="m41.81,136.14c-.76,0-1.52-.29-2.1-.87-1.16-1.16-1.16-3.03,0-4.19l92.97-92.97c1.16-1.16,3.03-1.16,4.19,0,1.16,1.16,1.16,3.03,0,4.19l-92.97,92.97c-.58.58-1.34.87-2.1.87Z"/><path class="cls-1" d="m62.55,156.88c-.76,0-1.52-.29-2.1-.87l-20.37-20.37c-1.16-1.16-1.16-3.03,0-4.19,1.16-1.16,3.03-1.16,4.19,0l18.28,18.28,90.87-90.87c1.16-1.16,3.03-1.16,4.19,0,1.16,1.16,1.16,3.03,0,4.19l-92.97,92.97c-.58.58-1.34.87-2.1.87Z"/></svg>